<svg width="24" height="24" viewBox="0 0 24 24" fill="none" xmlns="http://www.w3.org/2000/svg">
<g clip-path="url(#clip0_40_2)">
<path fill-rule="evenodd" clip-rule="evenodd" d="M23.5856 15.1079C24.1195 13.1426 24.1556 11.0153 23.5875 8.90713C21.8705 2.53219 15.2831 -1.25131 8.87485 0.456702C3.92861 1.7753 0.533909 5.97997 0.0323486 10.7613H2.06204C2.54485 6.87927 5.33157 3.48938 9.36329 2.41452C14.3461 1.08611 19.4592 3.76674 21.2424 8.46916L19.267 8.99538C18.3581 6.80783 16.5267 5.20394 14.3578 4.52082L13.995 6.56783C15.7074 7.19678 17.0963 8.61484 17.6044 10.5017C18.345 13.2514 16.9659 16.0688 14.4638 17.2376L15.0042 19.2449C18.293 17.8931 20.2688 14.4888 19.8014 10.9794L21.7692 10.455C21.9802 11.7955 21.907 13.1281 21.5883 14.3846L23.5856 15.1079Z" fill="white"/>
<path d="M15.0933 23.5433C8.68453 25.2513 2.09766 21.4678 0.380161 15.0929C0.180005 14.349 0.0548437 13.6029 0 12.8619H2.02828C2.07937 13.418 2.17828 13.9774 2.32875 14.5349C2.48625 15.119 2.69297 15.677 2.94328 16.2055L4.75219 15.1246C4.59984 14.7744 4.47141 14.4093 4.36922 14.0297C3.24234 9.84602 5.73797 5.54563 9.94359 4.42454C10.7405 4.21209 11.542 4.12944 12.3248 4.1626L11.962 6.21006C11.4717 6.2124 10.9739 6.27637 10.478 6.40851C7.37391 7.23637 5.53172 10.4101 6.36328 13.4983C6.41484 13.6883 6.47484 13.8737 6.54328 14.054L8.85656 12.6714L8.15953 10.8303L10.3439 8.59512L13.1048 8.00259L13.9041 8.98267L12.6314 10.2667L11.5214 10.6146L10.7283 11.4266L11.1169 12.5038C11.1169 12.5038 11.9039 13.3368 11.9053 13.3372L13.0172 13.0426L13.8084 12.1769L15.5362 11.632L16.0509 12.7853L14.2683 14.9626L11.2809 15.9048L9.94125 14.4191L7.60594 15.8147C8.80312 17.1726 10.6031 17.9266 12.4692 17.7693L13.0097 19.7766C10.2248 20.1436 7.50469 18.9954 5.81484 16.8859L4.01437 17.9617C6.38672 21.0662 10.4925 22.6043 14.513 21.5327C17.407 20.7613 19.6594 18.7965 20.8791 16.3134L22.8778 17.0371C21.4298 20.1319 18.6666 22.5908 15.0933 23.5433Z" fill="white"/>
</g>
<defs>
<clipPath id="clip0_40_2">
<rect width="24" height="24" fill="white"/>
</clipPath>
</defs>
</svg>
